<svg width="15" height="15" viewBox="0 0 15 15" fill="none" xmlns="http://www.w3.org/2000/svg">
<g id="Square Clock" clip-path="url(#clip0_636_8151)">
<g id="square-clock--clock-loading-frame-measure-time-circle">
<path id="Vector" d="M7.50007 11.7855C8.63671 11.7855 9.7268 11.334 10.5305 10.5303C11.3343 9.72656 11.7858 8.63647 11.7858 7.49983C11.7858 6.36318 11.3343 5.2731 10.5305 4.46937C9.7268 3.66564 8.63671 3.21411 7.50007 3.21411C6.36343 3.21411 5.27334 3.66564 4.46961 4.46937C3.66588 5.2731 3.21436 6.36318 3.21436 7.49983C3.21436 8.63647 3.66588 9.72656 4.46961 10.5303C5.27334 11.334 6.36343 11.7855 7.50007 11.7855Z" stroke="white" stroke-width="1.71429" stroke-linecap="round" stroke-linejoin="round"/>
<path id="Vector_2" d="M7.5 5.89282V7.49997H9.10714" stroke="white" stroke-width="1.71429" stroke-linecap="round" stroke-linejoin="round"/>
<path id="Vector_3" d="M13.3928 0.535645H1.60707C1.32291 0.535645 1.05039 0.648527 0.849459 0.849459C0.648527 1.05039 0.535645 1.32291 0.535645 1.60707V13.3928C0.535645 13.6769 0.648527 13.9495 0.849459 14.1504C1.05039 14.3513 1.32291 14.4642 1.60707 14.4642H13.3928C13.6769 14.4642 13.9495 14.3513 14.1504 14.1504C14.3513 13.9495 14.4642 13.6769 14.4642 13.3928V1.60707C14.4642 1.32291 14.3513 1.05039 14.1504 0.849459C13.9495 0.648527 13.6769 0.535645 13.3928 0.535645Z" stroke="white" stroke-width="1.71429" stroke-linecap="round" stroke-linejoin="round"/>
</g>
</g>
<defs>
<clipPath id="clip0_636_8151">
<rect width="15" height="15" fill="white"/>
</clipPath>
</defs>
</svg>
